# xmcd
#
# Track frame offsets:
#	183
#	17548
#	35320
#	46458
#	65165
#	76953
#	85815
#	93738
#	108498
#	122413
#	135645
#	148840
#
# Disc length: 2294 seconds
#
# Revision: 1
# Processed by: cddbd v1.4PL0 Copyright (c) Steve Scherf et al.
# Submitted via: EasyCDDAExtractor 6.0.0.1
#
DISCID=a008f40c
DTITLE=News - Stereo Magasin
DYEAR=1900
DGENRE=Pop
TTITLE0=Telefonen Er Død
TTITLE1=Gør Dog Noget
TTITLE2=Film
TTITLE3=Fotografi
TTITLE4=Fra Divan 2 Til Cafe Strecker
TTITLE5=Koldt Vand Til Roser
TTITLE6=Trafik
TTITLE7=Stereo Magasin
TTITLE8=Kærlighed Og KTAS
TTITLE9=Forstadskvarter
TTITLE10=Efter 16
TTITLE11=Sommer 81
EXTD=
EXTT0=
EXTT1=
EXTT2=
EXTT3=
EXTT4=
EXTT5=
EXTT6=
EXTT7=
EXTT8=
EXTT9=
EXTT10=
EXTT11=
PLAYORDER=
